<?xml version="1.0" encoding="UTF-8" standalone="no"?>
<!-- Created with Inkscape (http://www.inkscape.org/) -->
<svg
   xmlns:dc="http://purl.org/dc/elements/1.1/"
   xmlns:cc="http://web.resource.org/cc/"
   xmlns:rdf="http://www.w3.org/1999/02/22-rdf-syntax-ns#"
   xmlns:svg="http://www.w3.org/2000/svg"
   xmlns="http://www.w3.org/2000/svg"
   xmlns:sodipodi="http://inkscape.sourceforge.net/DTD/sodipodi-0.dtd"
   xmlns:inkscape="http://www.inkscape.org/namespaces/inkscape"
   width="512"
   height="512"
   id="svg2"
   sodipodi:version="0.32"
   inkscape:version="0.43"
   version="1.0"
   sodipodi:docbase="/home/toliz/Art/Mtt"
   sodipodi:docname="Logo1.svg">
  <defs
     id="defs4" />
  <sodipodi:namedview
     id="base"
     pagecolor="#ffffff"
     bordercolor="#666666"
     borderopacity="1.0"
     inkscape:pageopacity="0.0"
     inkscape:pageshadow="2"
     inkscape:zoom="1.0566406"
     inkscape:cx="278.08641"
     inkscape:cy="265.17802"
     inkscape:document-units="px"
     inkscape:current-layer="layer1"
     inkscape:window-width="874"
     inkscape:window-height="727"
     inkscape:window-x="198"
     inkscape:window-y="25"
     showguides="true"
     inkscape:guide-bbox="true" />
  <metadata
     id="metadata7">
    <rdf:RDF>
      <cc:Work
         rdf:about="">
        <dc:format>image/svg+xml</dc:format>
        <dc:type
           rdf:resource="http://purl.org/dc/dcmitype/StillImage" />
      </cc:Work>
    </rdf:RDF>
  </metadata>
  <g
     inkscape:label="Layer 1"
     inkscape:groupmode="layer"
     id="layer1">
    <path
       style="fill:#001fd1;fill-opacity:1;fill-rule:evenodd;stroke:none;stroke-width:1px;stroke-linecap:butt;stroke-linejoin:miter;stroke-opacity:1"
       d="M 140.90604,144.69203 C 140.90604,144.69203 140.10928,176.59843 140.03104,177.44203 C 70.896809,171.41264 9.8441788,225.84744 3.8435388,294.25453 C -2.6729112,368.54176 55.557869,434.18753 129.06229,440.59828 C 208.76553,447.54966 279.19097,385.03329 286.03104,306.16078 C 293.44137,220.7124 225.4734,151.9852 140.90604,144.69203 z M 137.68729,177.56703 C 138.21018,177.5605 138.75659,177.56703 139.28104,177.56703 C 206.41074,177.56703 260.87479,231.20088 260.87479,297.28578 C 260.87478,363.37068 206.41075,417.00453 139.28104,417.00453 C 72.151319,417.00453 17.656039,363.37068 17.656039,297.28578 C 17.656039,231.71718 71.280639,178.39602 137.68729,177.56703 z "
       id="path1307"
       sodipodi:nodetypes="ccsssccssssc" />
    <g
       id="g11934"
       transform="translate(-14.19593,-4.731978)">
      <path
         sodipodi:nodetypes="cssscsssc"
         d="M 282.45313,352.60992 C 237.17028,330.66518 230.65092,302.68881 212.09996,297.59639 C 194.81307,292.85096 180.33481,329.69526 163.04792,323.93295 C 145.76104,318.17066 110.84828,230.71931 87.121174,231.73618 C 63.394059,232.75306 17.973595,351.04965 18.363661,350.65959 C 18.753728,350.26953 63.394059,240.55435 87.121174,239.53747 C 110.84828,238.5206 145.76104,325.97195 163.04792,331.73424 C 180.33481,337.49654 194.81307,300.65225 212.09996,305.39767 C 230.65092,310.49009 238.73054,332.22543 282.45313,352.60992 z "
         style="fill:#000000;fill-opacity:1;fill-rule:evenodd;stroke:#000000;stroke-width:1.43263018px;stroke-linecap:butt;stroke-linejoin:miter;stroke-opacity:1"
         id="path5759" />
      <path
         sodipodi:nodetypes="cssscsssc"
         d="M 325.1263,359.97799 C 306.31702,357.60204 268.48078,344.92496 266.53046,331.27271 C 264.58013,317.62046 280.7678,306.11356 295.39522,303.18807 C 310.02262,300.26259 329.72087,310.20923 325.0401,319.57077 C 320.35933,328.93232 295.39522,335.17334 295.53313,334.98585 C 295.67106,334.79836 315.67856,327.37206 320.35933,318.01052 C 325.0401,308.64897 305.34185,298.70233 290.71444,301.62781 C 276.08703,304.5533 259.89936,316.0602 261.84969,329.71245 C 263.80001,343.3647 305.62309,357.44257 325.1263,359.97799 z "
         style="fill:#000000;fill-opacity:1;fill-rule:evenodd;stroke:#000000;stroke-width:0.82431555px;stroke-linecap:butt;stroke-linejoin:miter;stroke-opacity:1"
         id="path6641" />
      <path
         d="M 409.69086,340.24669 C 409.69086,357.48094 393.21102,365.7336 373.6906,365.7336 C 354.17017,365.7336 340.23902,353.02073 340.23902,335.78648 C 340.23902,318.55222 356.08168,304.56501 375.60212,304.56501 C 395.12254,304.56501 409.69086,323.01244 409.69086,340.24669 z M 404.59347,331.32626 C 404.59347,348.56052 388.75082,362.54773 369.23038,362.54773 C 349.70996,362.54773 333.86729,348.56052 333.86729,331.32626 C 333.86729,314.09201 347.16127,304.56501 366.68169,304.56501 C 386.20212,304.56501 404.59347,314.09201 404.59347,331.32626 z M 392.34658,335.10698 C 377.5598,229.75299 327.53554,169.49596 366.74123,167.5462 C 381.60185,166.81968 397.16846,171.60316 398.47641,171.85851 C 398.43203,171.43769 386.33498,169.52433 371.47435,170.25084 C 332.26867,172.20061 377.47104,229.62588 392.34658,335.10698 z "
         style="fill:#000000;fill-opacity:1;fill-rule:evenodd;stroke:#000000;stroke-width:0.67326266;stroke-linejoin:round;stroke-miterlimit:4;stroke-opacity:1"
         id="path7521" />
      <path
         id="path11917"
         style="fill:#000000;fill-opacity:1;fill-rule:nonzero;stroke:#000000;stroke-width:0.43808219px;stroke-linecap:butt;stroke-linejoin:miter;stroke-opacity:1"
         d="M 435.08897,371.17899 C 440.64613,341.7751 400.60354,309.78985 431.37485,308.85587 C 443.03848,308.50784 443.63285,307.46304 431.96921,307.81107 C 401.19792,308.74506 419.51299,324.55137 435.08897,371.17899 z "
         sodipodi:nodetypes="cccc" />
      <path
         id="path11919"
         style="fill:#000000;fill-opacity:1;fill-rule:evenodd;stroke:#000000;stroke-width:0.18319884;stroke-linejoin:round;stroke-miterlimit:4;stroke-opacity:1"
         d="M 436.45898,295.1703 C 436.45898,299.79487 431.91172,302.00935 426.52546,302.00935 C 421.13921,302.00935 417.2952,298.59803 417.2952,293.97346 C 417.2952,289.34889 421.66665,285.59562 427.0529,285.59562 C 432.43915,285.59562 436.45898,290.54572 436.45898,295.1703 z M 435.05246,292.77663 C 435.05246,297.40119 430.68101,301.15447 425.29476,301.15447 C 419.90851,301.15447 415.53706,297.40119 415.53706,292.77663 C 415.53706,288.15205 419.20525,285.59562 424.5915,285.59562 C 429.97776,285.59562 435.05246,288.15205 435.05246,292.77663 z " />
      <path
         sodipodi:nodetypes="csssccsssc"
         id="path11924"
         style="fill:#000000;fill-opacity:1;fill-rule:evenodd;stroke:#000000;stroke-width:0.67326266;stroke-linejoin:round;stroke-miterlimit:4;stroke-opacity:1"
         d="M 444.79153,341.80696 C 444.79153,359.0412 455.81046,366.51373 475.33089,366.51373 C 494.85132,366.51373 508.78246,353.80086 508.78246,336.56661 C 508.78246,319.33236 492.9398,305.34514 473.41937,305.34514 C 453.89895,305.34514 444.79153,324.5727 444.79153,341.80696 z M 444.42802,332.10639 C 444.42802,349.34065 460.27067,363.32787 479.7911,363.32787 C 499.31152,363.32787 517.58112,349.16891 515.15419,332.10639 C 512.8138,315.65227 501.08008,308.46565 482.3398,305.34514 C 463.08448,302.13886 444.42802,314.87214 444.42802,332.10639 z " />
      <path
         sodipodi:nodetypes="cccc"
         d="M 515.44221,306.96093 C 520.99937,336.36483 486.41769,364.44943 517.18899,365.38341 C 528.85262,365.73144 529.44699,366.77623 517.78336,366.42821 C 487.01206,365.49422 499.86623,353.58855 515.44221,306.96093 z "
         style="fill:#000000;fill-opacity:1;fill-rule:nonzero;stroke:#000000;stroke-width:0.43808219px;stroke-linecap:butt;stroke-linejoin:miter;stroke-opacity:1"
         id="path11932" />
    </g>
    <path
       style="font-size:12px;font-style:normal;font-variant:normal;font-weight:normal;font-stretch:normal;text-align:start;line-height:125%;writing-mode:lr-tb;text-anchor:start;font-family:MgOpen Cosmetica"
       d="M 352.28632,386.71311 L 352.41064,385.34556 L 352.28632,383.93657 C 353.50192,383.9366 355.32531,383.99186 357.75651,384.10234 C 360.1877,384.18525 361.84534,384.22669 362.72942,384.22666 C 363.91738,384.22669 365.74077,384.18525 368.19961,384.10234 C 370.65842,383.99186 372.32986,383.9366 373.21396,383.93657 C 373.10343,384.35101 373.04817,384.83449 373.04819,385.387 C 373.04817,385.63567 373.04817,385.85669 373.04819,386.05006 C 373.04817,386.21584 373.10343,386.4783 373.21396,386.83743 C 372.30224,386.67169 371.28003,386.51974 370.14733,386.38158 C 369.0146,386.24347 367.97858,386.1744 367.03927,386.17438 L 364.76002,386.17438 C 364.76001,386.69932 364.73238,387.59721 364.67714,388.86804 C 364.62187,390.11128 364.59424,390.76052 364.59426,390.81576 L 364.71858,405.15429 C 364.71857,407.11583 364.8567,409.3122 365.13299,411.74339 C 364.33178,411.66051 363.54441,411.57763 362.77086,411.49474 C 362.41169,411.49474 362.0111,411.52237 361.56907,411.57763 C 361.15465,411.63288 360.75406,411.68814 360.36729,411.74339 C 360.36728,410.9422 360.43635,409.62991 360.57449,407.80651 C 360.71262,405.95549 360.78169,404.68464 360.7817,403.99395 L 360.82314,391.35449 L 360.69882,386.17438 C 358.10185,386.1744 355.29769,386.35398 352.28632,386.71311 M 380.56906,412.19924 C 378.9943,412.19924 377.65438,411.71576 376.5493,410.74881 C 375.44421,409.78186 374.89166,408.49719 374.89166,406.89481 C 374.89166,404.68464 375.49946,403.28946 376.71506,402.70928 C 377.95828,402.12912 379.91982,401.52132 382.59966,400.88588 C 385.27949,400.25047 386.68848,399.40784 386.82663,398.35799 C 386.82662,396.94902 386.3984,395.77486 385.54196,394.83552 C 384.71313,393.86858 383.58042,393.38511 382.14381,393.38509 C 381.03871,393.38511 380.07176,393.66138 379.24295,394.21391 C 378.44176,394.73884 377.79252,395.52622 377.29523,396.57604 L 376.42498,396.24451 L 376.67362,394.08958 C 377.55769,393.28841 378.55227,392.69443 379.65736,392.30763 C 380.79007,391.89324 381.97804,391.68603 383.22127,391.68601 C 385.62483,391.68603 387.37916,392.16951 388.48427,393.13644 C 389.58934,394.10341 390.14188,395.76105 390.1419,398.10935 L 390.1419,407.80651 C 390.14188,408.71821 390.25239,409.33982 390.47343,409.67135 C 390.72206,409.97525 391.21934,410.1272 391.9653,410.1272 L 393.0842,410.08576 L 393.0842,410.95601 C 392.50401,411.17703 391.91002,411.39805 391.30224,411.61907 C 390.72206,411.84009 390.1557,411.95059 389.60317,411.95059 C 388.71908,411.95059 388.04221,411.72958 387.57256,411.28754 C 387.13052,410.81788 386.8128,410.14101 386.61943,409.25694 C 385.65246,410.22389 384.69932,410.95601 383.76,411.4533 C 382.8483,411.95059 381.78465,412.19924 380.56906,412.19924 M 378.78711,406.23176 C 378.7871,407.22634 379.07718,408.08278 379.65736,408.80109 C 380.26516,409.5194 381.05253,409.87855 382.01949,409.87855 C 383.23508,409.87855 384.29873,409.45033 385.21044,408.59388 C 386.14975,407.70982 386.61941,406.65998 386.61943,405.44438 L 386.61943,401.46606 C 383.99483,401.93573 382.0333,402.43302 380.73483,402.95793 C 379.43634,403.48285 378.7871,404.57413 378.78711,406.23176 M 395.31359,408.05515 C 395.31359,407.14346 395.6313,406.3699 396.26673,405.73447 C 396.90215,405.09905 397.70334,404.58794 398.6703,404.20115 L 398.6703,403.91107 C 397.42707,403.60717 396.47393,402.94412 395.81088,401.92191 C 395.14782,400.89971 394.8163,399.72555 394.8163,398.39943 C 394.8163,396.35503 395.57604,394.72503 397.09555,393.50941 C 398.64266,392.29383 400.46606,391.68603 402.56574,391.68601 C 403.22878,391.68603 404.19574,391.79654 405.4666,392.01754 C 406.76507,392.21095 407.55244,392.32146 407.82873,392.34907 L 412.9674,392.22475 L 412.9674,394.37967 C 412.24907,394.26918 411.53076,394.17248 410.81247,394.08958 C 410.09415,393.97909 409.47253,393.92384 408.94763,393.92382 C 410.32898,394.89079 411.01966,396.27215 411.01967,398.06791 C 411.01966,400.08471 410.21847,401.71471 408.61611,402.95793 C 407.04134,404.20116 405.20413,404.82277 403.10447,404.82277 C 402.66242,404.82277 402.15132,404.79515 401.57116,404.73988 C 401.01861,404.65701 400.67327,404.61557 400.53514,404.61556 C 399.98259,404.61557 399.49911,404.80896 399.08471,405.19573 C 398.69792,405.5549 398.50453,406.01074 398.50454,406.56328 C 398.50453,407.30922 398.83606,407.84795 399.49912,408.17948 C 400.16216,408.48338 400.9081,408.63533 401.73692,408.63533 L 405.6738,408.63533 C 407.80109,408.63533 409.5416,409.10499 410.89535,410.04431 C 412.27669,410.98364 412.96737,412.47551 412.9674,414.51993 C 412.96737,417.17214 411.84847,419.21655 409.61069,420.65318 C 407.40049,422.11741 404.91404,422.84953 402.15133,422.84954 C 399.96877,422.84953 398.03487,422.40749 396.34961,421.52343 C 394.69197,420.63935 393.86316,419.20274 393.86316,417.21358 C 393.86316,415.77696 394.30519,414.57518 395.18927,413.60823 C 396.07333,412.64128 397.23368,411.93678 398.6703,411.49474 C 397.67571,411.16322 396.86071,410.735 396.22529,410.21008 C 395.61749,409.68516 395.31359,408.96686 395.31359,408.05515 M 402.81438,403.45522 C 404.19574,403.45523 405.25938,402.91649 406.00533,401.83902 C 406.77888,400.76157 407.16566,399.51835 407.16567,398.10935 C 407.16566,396.75563 406.79269,395.58147 406.04677,394.58687 C 405.32845,393.59231 404.30625,393.09502 402.98015,393.095 C 401.65403,393.09502 400.6042,393.64757 399.83064,394.75264 C 399.05707,395.83012 398.67029,397.04571 398.6703,398.39943 C 398.67029,399.75318 399.02945,400.94115 399.74776,401.96335 C 400.46606,402.95793 401.48827,403.45523 402.81438,403.45522 M 402.98015,421.19191 C 404.69303,421.1919 406.22633,420.73605 407.58008,419.82436 C 408.9338,418.91265 409.61067,417.62799 409.61069,415.97036 C 409.61067,414.3956 409.01668,413.2767 407.82873,412.61365 C 406.66837,411.97822 405.21794,411.66051 403.47744,411.66051 C 401.68166,411.66051 400.14835,412.04729 398.8775,412.82085 C 397.60665,413.62204 396.97122,414.87908 396.97122,416.59197 C 396.97122,418.11146 397.56521,419.25799 398.75318,420.03156 C 399.94114,420.80511 401.35013,421.1919 402.98015,421.19191 M 424.88877,386.71311 L 425.01309,385.34556 L 424.88877,383.93657 C 426.10436,383.9366 427.92776,383.99186 430.35896,384.10234 C 432.79015,384.18525 434.44778,384.22669 435.33186,384.22666 C 436.51982,384.22669 438.34322,384.18525 440.80205,384.10234 C 443.26086,383.99186 444.93231,383.9366 445.8164,383.93657 C 445.70587,384.35101 445.65061,384.83449 445.65064,385.387 C 445.65061,385.63567 445.65061,385.85669 445.65064,386.05006 C 445.65061,386.21584 445.70587,386.4783 445.8164,386.83743 C 444.90468,386.67169 443.88247,386.51974 442.74978,386.38158 C 441.61704,386.24347 440.58102,386.1744 439.64171,386.17438 L 437.36246,386.17438 C 437.36245,386.69932 437.33482,387.59721 437.27958,388.86804 C 437.22432,390.11128 437.19669,390.76052 437.1967,390.81576 L 437.32102,405.15429 C 437.32101,407.11583 437.45915,409.3122 437.73543,411.74339 C 436.93423,411.66051 436.14685,411.57763 435.3733,411.49474 C 435.01414,411.49474 434.61355,411.52237 434.17152,411.57763 C 433.7571,411.63288 433.35651,411.68814 432.96973,411.74339 C 432.96972,410.9422 433.03879,409.62991 433.17694,407.80651 C 433.31506,405.95549 433.38413,404.68464 433.38414,403.99395 L 433.42558,391.35449 L 433.30126,386.17438 C 430.70429,386.1744 427.90013,386.35398 424.88877,386.71311 M 457.27415,412.19924 C 454.31803,412.19924 451.92827,411.27373 450.10488,409.4227 C 448.30911,407.54405 447.41123,405.11286 447.41123,402.12911 C 447.41123,399.09013 448.32292,396.58986 450.14632,394.62831 C 451.99734,392.6668 454.44235,391.68603 457.48135,391.68601 C 460.46508,391.68603 462.85483,392.65298 464.65062,394.58687 C 466.474,396.52079 467.3857,398.99343 467.38572,402.00479 C 467.3857,405.01616 466.46019,407.47498 464.60918,409.38126 C 462.78577,411.25991 460.34076,412.19924 457.27415,412.19924 M 457.43991,393.26077 C 455.36786,393.26078 453.86218,394.14486 452.92286,395.91298 C 452.01115,397.68114 451.5553,399.69792 451.55531,401.96335 C 451.5553,404.17353 452.02497,406.19032 452.9643,408.01371 C 453.90362,409.80948 455.38167,410.70737 457.39847,410.70737 C 459.44287,410.70737 460.92093,409.83711 461.83264,408.09659 C 462.74433,406.32845 463.20018,404.29786 463.20019,402.00479 C 463.20018,399.73936 462.74433,397.72258 461.83264,395.95442 C 460.94856,394.15867 459.48432,393.26078 457.43991,393.26077 M 479.77524,412.19924 C 476.81912,412.19924 474.42936,411.27373 472.60597,409.4227 C 470.8102,407.54405 469.91232,405.11286 469.91232,402.12911 C 469.91232,399.09013 470.82401,396.58986 472.64741,394.62831 C 474.49843,392.6668 476.94344,391.68603 479.98245,391.68601 C 482.96617,391.68603 485.35593,392.65298 487.15171,394.58687 C 488.97509,396.52079 489.88679,398.99343 489.88681,402.00479 C 489.88679,405.01616 488.96128,407.47498 487.11027,409.38126 C 485.28686,411.25991 482.84185,412.19924 479.77524,412.19924 M 479.94101,393.26077 C 477.86895,393.26078 476.36327,394.14486 475.42395,395.91298 C 474.51225,397.68114 474.0564,399.69792 474.0564,401.96335 C 474.0564,404.17353 474.52606,406.19032 475.46539,408.01371 C 476.40471,409.80948 477.88277,410.70737 479.89956,410.70737 C 481.94397,410.70737 483.42202,409.83711 484.33374,408.09659 C 485.24542,406.32845 485.70127,404.29786 485.70128,402.00479 C 485.70127,399.73936 485.24542,397.72258 484.33374,395.95442 C 483.44965,394.15867 481.98541,393.26078 479.94101,393.26077 M 494.36113,408.22092 L 494.40257,385.42844 C 494.40257,384.76542 494.36113,383.9366 494.27825,382.94199 C 494.22299,381.91982 494.19536,381.32583 494.19537,381.16004 C 494.9413,381.2982 495.63198,381.36727 496.26741,381.36724 C 496.93046,381.36727 497.60732,381.2982 498.29801,381.16004 C 498.15987,382.67956 498.06317,384.19906 498.00793,385.71853 C 497.98029,387.21043 497.96648,389.07526 497.96648,391.31305 L 498.00793,396.45171 L 498.13225,408.42812 L 498.29801,411.74339 C 497.96648,411.71576 497.64876,411.68814 497.34487,411.66051 C 497.04096,411.60525 496.68181,411.57763 496.26741,411.57763 C 495.93588,411.57763 495.56291,411.60525 495.14851,411.66051 C 494.73409,411.68814 494.41638,411.71576 494.19537,411.74339 L 494.36113,408.22092"
       id="flowRoot11943" />
  </g>
</svg>
