/* XPM */
static char * x_xpm[] = {
"18 18 2 1",
" 	c None",
".	c #FF0000",
"                  ",
"                  ",
"    .       ..    ",
"   ....    ....   ",
"   ...........    ",
"    .........     ",
"      ......      ",
"       .....      ",
"      ......      ",
"      .......     ",
"     .... ...     ",
"     ...  ....    ",
"    ....   ....   ",
"    ...    ....   ",
"   ....     ....  ",
"    ..       ...  ",
"             ..   ",
"                  "};
